<svg xmlns="http://www.w3.org/2000/svg" viewBox="0 0 1500 500">
  <rect width="1500" height="500" fill="black"/>
  
  <!-- Central Stream: Y=200 to Y=300 -->
  <g transform="translate(0, 200)">
    <!-- Row 1 -->
    <rect x="100" y="0" width="30" height="30" fill="white" opacity="0.8"/>
    <rect x="135" y="0" width="30" height="30" fill="white" opacity="0.4"/>
    <rect x="170" y="0" width="30" height="30" fill="white" opacity="0.6"/>
    <rect x="205" y="0" width="30" height="30" fill="white" opacity="0.2"/>
    <rect x="400" y="0" width="30" height="30" fill="white" opacity="0.5"/>
    <rect x="435" y="0" width="30" height="30" fill="white" opacity="0.9"/>
    
    <!-- Row 2 -->
    <rect x="135" y="35" width="30" height="30" fill="white" opacity="0.5"/>
    <rect x="170" y="35" width="30" height="30" fill="white" opacity="0.9"/>
    <rect x="205" y="35" width="30" height="30" fill="white" opacity="0.3"/>
    <rect x="240" y="35" width="30" height="30" fill="white" opacity="0.7"/>
    <rect x="435" y="35" width="30" height="30" fill="white" opacity="0.2"/>
    
    <!-- Row 3 -->
    <rect x="170" y="70" width="30" height="30" fill="white" opacity="0.6"/>
    <rect x="205" y="70" width="30" height="30" fill="white" opacity="0.8"/>
    <rect x="240" y="70" width="30" height="30" fill="white" opacity="0.4"/>
    <rect x="600" y="70" width="30" height="30" fill="white" opacity="0.7"/>
    <rect x="635" y="70" width="30" height="30" fill="white" opacity="0.3"/>
  </g>
  
  <!-- Scattered Data Points -->
  <rect x="800" y="235" width="30" height="30" fill="white" opacity="0.5"/>
  <rect x="835" y="235" width="30" height="30" fill="white" opacity="0.8"/>
  <rect x="870" y="235" width="30" height="30" fill="white" opacity="0.2"/>
  
  <rect x="1200" y="200" width="30" height="30" fill="white" opacity="0.9"/>
  <rect x="1235" y="200" width="30" height="30" fill="white" opacity="0.4"/>
  <rect x="1235" y="235" width="30" height="30" fill="white" opacity="0.6"/>
  <rect x="1270" y="270" width="30" height="30" fill="white" opacity="0.3"/>
  
  <!-- Connecting Lines (Abstract) -->
  <rect x="250" y="215" width="100" height="2" fill="white" opacity="0.2"/>
  <rect x="480" y="250" width="200" height="2" fill="white" opacity="0.1"/>
  <rect x="920" y="250" width="250" height="2" fill="white" opacity="0.15"/>
</svg>

