<svg xmlns="http://www.w3.org/2000/svg" viewBox="0 0 1500 500">
  <rect width="1500" height="500" fill="black"/>
  
  <defs>
    <linearGradient id="fade-down" x1="0" y1="0" x2="0" y2="1">
      <stop offset="0%" stop-color="white" stop-opacity="0.8"/>
      <stop offset="100%" stop-color="white" stop-opacity="0"/>
    </linearGradient>
  </defs>

  <!-- Column 1 -->
  <rect x="100" y="50" width="20" height="20" fill="url(#fade-down)"/>
  <rect x="100" y="80" width="20" height="20" fill="url(#fade-down)"/>
  <rect x="100" y="110" width="20" height="20" fill="url(#fade-down)"/>
  <rect x="100" y="140" width="20" height="20" fill="url(#fade-down)"/>
  
  <!-- Column 2 (Offset) -->
  <rect x="250" y="150" width="20" height="20" fill="url(#fade-down)"/>
  <rect x="250" y="180" width="20" height="20" fill="url(#fade-down)"/>
  <rect x="250" y="210" width="20" height="20" fill="url(#fade-down)"/>

  <!-- Column 3 -->
  <rect x="400" y="20" width="20" height="20" fill="url(#fade-down)"/>
  <rect x="400" y="50" width="20" height="20" fill="url(#fade-down)"/>
  <rect x="400" y="80" width="20" height="20" fill="url(#fade-down)"/>
  <rect x="400" y="110" width="20" height="20" fill="url(#fade-down)"/>
  <rect x="400" y="140" width="20" height="20" fill="url(#fade-down)"/>
  <rect x="400" y="170" width="20" height="20" fill="url(#fade-down)"/>

  <!-- Column 4 -->
  <rect x="650" y="200" width="20" height="20" fill="url(#fade-down)"/>
  <rect x="650" y="230" width="20" height="20" fill="url(#fade-down)"/>
  <rect x="650" y="260" width="20" height="20" fill="url(#fade-down)"/>
  
  <!-- Column 5 -->
  <rect x="900" y="80" width="20" height="20" fill="url(#fade-down)"/>
  <rect x="900" y="110" width="20" height="20" fill="url(#fade-down)"/>
  <rect x="900" y="140" width="20" height="20" fill="url(#fade-down)"/>
  <rect x="900" y="170" width="20" height="20" fill="url(#fade-down)"/>

   <!-- Column 6 -->
  <rect x="1100" y="250" width="20" height="20" fill="url(#fade-down)"/>
  <rect x="1100" y="280" width="20" height="20" fill="url(#fade-down)"/>

   <!-- Column 7 -->
  <rect x="1350" y="40" width="20" height="20" fill="url(#fade-down)"/>
  <rect x="1350" y="70" width="20" height="20" fill="url(#fade-down)"/>
  <rect x="1350" y="100" width="20" height="20" fill="url(#fade-down)"/>
  
  <!-- Random stray blocks -->
  <rect x="120" y="300" width="20" height="20" fill="white" opacity="0.1"/>
  <rect x="500" y="400" width="20" height="20" fill="white" opacity="0.05"/>
  <rect x="1200" y="350" width="20" height="20" fill="white" opacity="0.1"/>
</svg>


